<svg width="256" height="256" viewBox="0 0 256 256" xmlns="http://www.w3.org/2000/svg">
<defs>
<linearGradient id="g" x1="0" y1="0" x2="1" y2="1">
<stop offset="0%" stop-color="#6b8afd"/>
<stop offset="100%" stop-color="#9a6bff"/>
</linearGradient>
</defs>
<rect x="0" y="0" width="256" height="256" rx="48" fill="url(#g)"/>
<g fill="#ffffff">
<path d="M74 164c-8 0-14-6-14-14V76h24v60h36v28H74z" />
<path d="M134 164V76h38c24 0 38 12 38 32 0 15-7 26-20 31l22 25h-31l-19-22h-8v22h-20zm20-44h16c10 0 16-4 16-12 0-8-6-12-16-12h-16v24z"/>
</g>
</svg>
